<svg xmlns="http://www.w3.org/2000/svg" width="60.203" height="51.684" viewBox="0 0 60.203 51.684">
  <g id="Grupo_1238024" data-name="Grupo 1238024" transform="translate(-7 -42.76)">
    <g id="Grupo_1238018" data-name="Grupo 1238018" transform="translate(7.5 43.26)">
      <g id="Grupo_1238017" data-name="Grupo 1238017" transform="translate(0)">
        <path id="Trazado_1334100" data-name="Trazado 1334100" d="M243.989,82.412a4.852,4.852,0,0,1-1.489-.234V91.36h2.978V82.178A4.848,4.848,0,0,1,243.989,82.412Z" transform="translate(-214.507 -77.542)" fill="#ffc344"/>
        <g id="Grupo_1238016" data-name="Grupo 1238016" transform="translate(2.43 29.867)">
          <g id="Grupo_1238013" data-name="Grupo 1238013" transform="translate(41.098)">
            <path id="Trazado_1334101" data-name="Trazado 1334101" d="M403.3,297.96c0-.062,0-.124,0-.187a3.784,3.784,0,0,0-7.568,0q0,.094,0,.187Z" transform="translate(-393.019 -293.989)" fill="#46cc8d"/>
            <path id="Trazado_1334102" data-name="Trazado 1334102" d="M417.7,293.989a3.776,3.776,0,0,0-1.326.24,3.785,3.785,0,0,1,2.457,3.544q0,.094,0,.187h2.653c0-.062,0-.124,0-.187A3.784,3.784,0,0,0,417.7,293.989Z" transform="translate(-411.193 -293.989)" fill="#00c27a"/>
            <rect id="Rectángulo_746628" data-name="Rectángulo 746628" width="13.007" height="11.996" transform="translate(0 3.853)" fill="#ffe177"/>
            <path id="Trazado_1334103" data-name="Trazado 1334103" d="M382.353,326.332v8.18a1.191,1.191,0,0,1-1.191,1.191h-8.253v2.625h13.007v-12Z" transform="translate(-372.908 -322.479)" fill="#ffd15b"/>
          </g>
          <g id="Grupo_1238014" data-name="Grupo 1238014" transform="translate(20.549 3.853)">
            <rect id="Rectángulo_746629" data-name="Rectángulo 746629" width="13.007" height="11.996" transform="translate(0)" fill="#ffe177"/>
            <path id="Trazado_1334104" data-name="Trazado 1334104" d="M209.848,326.332v8.18a1.191,1.191,0,0,1-1.191,1.191H200.4v2.625H213.41v-12Z" transform="translate(-200.403 -326.332)" fill="#ffd15b"/>
          </g>
          <g id="Grupo_1238015" data-name="Grupo 1238015" transform="translate(0 3.853)">
            <rect id="Rectángulo_746630" data-name="Rectángulo 746630" width="13.007" height="11.996" fill="#ffe177"/>
            <path id="Trazado_1334105" data-name="Trazado 1334105" d="M37.342,326.332v8.18a1.191,1.191,0,0,1-1.191,1.191H27.9v2.625H40.9v-12Z" transform="translate(-27.897 -326.332)" fill="#ffd15b"/>
          </g>
        </g>
        <path id="Trazado_1334106" data-name="Trazado 1334106" d="M65.512,431.121H8.691A1.191,1.191,0,0,1,7.5,429.93v-2.7a1.191,1.191,0,0,1,1.191-1.191H65.512a1.191,1.191,0,0,1,1.191,1.191v2.7A1.191,1.191,0,0,1,65.512,431.121Z" transform="translate(-7.5 -380.438)" fill="#cbc4cc"/>
        <path id="Trazado_1334107" data-name="Trazado 1334107" d="M65.512,426.034H62.474v1.271a1.191,1.191,0,0,1-1.191,1.191H7.5v1.434a1.191,1.191,0,0,0,1.191,1.191H65.512A1.191,1.191,0,0,0,66.7,429.93v-2.7A1.191,1.191,0,0,0,65.512,426.034Z" transform="translate(-7.5 -380.438)" fill="#b5adb6"/>
        <path id="Trazado_1334108" data-name="Trazado 1334108" d="M66.108,46.6H8.1a.6.6,0,0,1-.6-.6V43.856a.6.6,0,0,1,.6-.6H66.108a.6.6,0,0,1,.6.6V46A.6.6,0,0,1,66.108,46.6Z" transform="translate(-7.5 -43.26)" fill="#cbc4cc"/>
        <path id="Trazado_1334109" data-name="Trazado 1334109" d="M66.108,43.26H62.474V44.3a.6.6,0,0,1-.6.6H7.5V46a.6.6,0,0,0,.6.6H66.108a.6.6,0,0,0,.6-.6V43.856A.6.6,0,0,0,66.108,43.26Z" transform="translate(-7.5 -43.26)" fill="#b5adb6"/>
        <circle id="Elipse_13931" data-name="Elipse 13931" cx="4.288" cy="4.288" r="4.288" transform="translate(25.194 19.564)" fill="#fe5ca7"/>
        <path id="Trazado_1334110" data-name="Trazado 1334110" d="M229.939,208.54a4.288,4.288,0,0,1-4.554,6.6,4.288,4.288,0,1,0,4.554-6.6Z" transform="translate(-199.43 -188.852)" fill="#fe3d97"/>
        <path id="Trazado_1334111" data-name="Trazado 1334111" d="M213.117,43.26a4.989,4.989,0,1,0,9.978,0Z" transform="translate(-188.624 -43.26)" fill="#ffe177"/>
        <path id="Trazado_1334112" data-name="Trazado 1334112" d="M243.268,43.26a4.99,4.99,0,0,1-3.209,4.661,4.989,4.989,0,0,0,6.769-4.661Z" transform="translate(-212.356 -43.26)" fill="#ffd15b"/>
      </g>
    </g>
    <g id="Grupo_1238023" data-name="Grupo 1238023" transform="translate(7.5 43.26)">
      <path id="Trazado_1334113" data-name="Trazado 1334113" d="M207.319,167.677l2.69-3.9a.6.6,0,0,0,0-.676l-3.163-4.584a.6.6,0,0,0-.49-.257h-6.522a.6.6,0,0,0-.49.257l-3.163,4.584a.6.6,0,0,0,0,.676l2.69,3.9" transform="translate(-173.612 -144.562)" fill="none" stroke="#000" stroke-linecap="round" stroke-linejoin="round" stroke-miterlimit="10" stroke-width="1"/>
      <path id="Trazado_1334114" data-name="Trazado 1334114" d="M403.305,297.841c0-.023,0-.046,0-.069a3.784,3.784,0,1,0-7.568,0c0,.023,0,.046,0,.069Z" transform="translate(-349.492 -264.121)" fill="none" stroke="#000" stroke-linecap="round" stroke-linejoin="round" stroke-miterlimit="10" stroke-width="1"/>
      <g id="Grupo_1238019" data-name="Grupo 1238019" transform="translate(41.872 29.867)">
        <path id="Trazado_1334115" data-name="Trazado 1334115" d="M359.011,293.988l1.655,3.853h13.007l1.655-3.853" transform="translate(-359.011 -293.988)" fill="none" stroke="#000" stroke-linecap="round" stroke-linejoin="round" stroke-miterlimit="10" stroke-width="1"/>
      </g>
      <g id="Grupo_1238020" data-name="Grupo 1238020" transform="translate(21.323 29.867)">
        <path id="Trazado_1334116" data-name="Trazado 1334116" d="M186.505,293.988l1.656,3.853h13.007l1.656-3.853" transform="translate(-186.505 -293.988)" fill="none" stroke="#000" stroke-linecap="round" stroke-linejoin="round" stroke-miterlimit="10" stroke-width="1"/>
      </g>
      <g id="Grupo_1238021" data-name="Grupo 1238021" transform="translate(0.774 29.867)">
        <line id="Línea_3849" data-name="Línea 3849" x2="1.655" y2="3.853" fill="none" stroke="#000" stroke-linecap="round" stroke-linejoin="round" stroke-miterlimit="10" stroke-width="1"/>
      </g>
      <line id="Línea_3850" data-name="Línea 3850" y1="3.853" x2="1.655" transform="translate(15.437 29.867)" fill="none" stroke="#000" stroke-linecap="round" stroke-linejoin="round" stroke-miterlimit="10" stroke-width="1"/>
      <g id="Grupo_1238022" data-name="Grupo 1238022" transform="translate(0)">
        <path id="Trazado_1334117" data-name="Trazado 1334117" d="M286.142,46.6h25.415a.6.6,0,0,0,.6-.6V43.856a.6.6,0,0,0-.6-.6H301.015" transform="translate(-252.95 -43.26)" fill="none" stroke="#000" stroke-linecap="round" stroke-linejoin="round" stroke-miterlimit="10" stroke-width="1"/>
        <line id="Línea_3851" data-name="Línea 3851" x1="9.424" transform="translate(34.472)" fill="none" stroke="#000" stroke-linecap="round" stroke-linejoin="round" stroke-miterlimit="10" stroke-width="1"/>
        <path id="Trazado_1334118" data-name="Trazado 1334118" d="M31.993,43.26H8.1a.6.6,0,0,0-.6.6V46a.6.6,0,0,0,.6.6H33.273" transform="translate(-7.5 -43.26)" fill="none" stroke="#000" stroke-linejoin="round" stroke-miterlimit="10" stroke-width="1"/>
      </g>
      <path id="Trazado_1334119" data-name="Trazado 1334119" d="M213.117,43.26a4.989,4.989,0,1,0,9.978,0Z" transform="translate(-188.624 -43.26)" fill="none" stroke="#000" stroke-linejoin="round" stroke-miterlimit="10" stroke-width="1"/>
      <circle id="Elipse_13932" data-name="Elipse 13932" cx="4.288" cy="4.288" r="4.288" transform="translate(25.194 19.564)" fill="none" stroke="#000" stroke-linecap="round" stroke-linejoin="round" stroke-miterlimit="10" stroke-width="1"/>
      <path id="Trazado_1334120" data-name="Trazado 1334120" d="M242.5,83.245v8.936h2.978V83.245" transform="translate(-214.507 -78.482)" fill="none" stroke="#000" stroke-linejoin="round" stroke-miterlimit="10" stroke-width="1"/>
      <path id="Trazado_1334121" data-name="Trazado 1334121" d="M372.908,334.511v3.7h13.007V326.331H372.908v4.011" transform="translate(-329.38 -292.611)" fill="none" stroke="#000" stroke-linecap="round" stroke-linejoin="round" stroke-miterlimit="10" stroke-width="1"/>
      <rect id="Rectángulo_746631" data-name="Rectángulo 746631" width="13.007" height="11.877" transform="translate(22.979 33.72)" fill="none" stroke="#000" stroke-linecap="round" stroke-linejoin="round" stroke-miterlimit="10" stroke-width="1"/>
      <path id="Trazado_1334122" data-name="Trazado 1334122" d="M30.887,326.332H27.9v11.877H40.9V326.332H35.057" transform="translate(-25.467 -292.612)" fill="none" stroke="#000" stroke-linecap="round" stroke-linejoin="round" stroke-miterlimit="10" stroke-width="1"/>
      <path id="Trazado_1334123" data-name="Trazado 1334123" d="M65.512,431.121H8.691A1.191,1.191,0,0,1,7.5,429.93v-2.7a1.191,1.191,0,0,1,1.191-1.191H65.512a1.191,1.191,0,0,1,1.191,1.191v2.7A1.191,1.191,0,0,1,65.512,431.121Z" transform="translate(-7.5 -380.438)" fill="none" stroke="#000" stroke-linecap="round" stroke-linejoin="round" stroke-miterlimit="10" stroke-width="1"/>
    </g>
  </g>
</svg>
